# xmcd CD database file
#
# Track frame offsets:
#	150
#	19282
#	44271
#	72761
#	94650
#	116287
#	133151
#	152258
#	170502
#	187633
#
# Disc length: 2750 seconds
#
# Revision: 0
# Processed by: cddbd v1.5.2PL0 Copyright (c) Steve Scherf et al.
# Submitted via: CDex 1.70beta2
#
DISCID=730abc0a
DTITLE=KellyRed and the HammerHeads - Once You Get a Taste
DYEAR=2003
DGENRE=Blues
TTITLE0=Once You Get a Taste
TTITLE1=Leap of Faith
TTITLE2=Ode to Billie Joe
TTITLE3=Don't Try to Explain
TTITLE4=Lie No Better
TTITLE5=You Knew the Job Was Dangerous
TTITLE6=Little By Little
TTITLE7=At Last
TTITLE8=He's Got a Way With Women
TTITLE9=Pack It Up
EXTD=YEAR: 2003
EXTT0=
EXTT1=
EXTT2=
EXTT3=
EXTT4=
EXTT5=
EXTT6=
EXTT7=
EXTT8=
EXTT9=
PLAYORDER=
